<mxfile host="app.diagrams.net" agent="Mozilla/5.0 (Windows NT 10.0; Win64; x64) AppleWebKit/537.36 (KHTML, like Gecko) Chrome/131.0.0.0 Safari/537.36 Edg/131.0.0.0" version="24.8.8">
  <diagram name="Page-1" id="GTglEA4AkfOXL8VmQ-VT">
    <mxGraphModel dx="2063" dy="768" grid="1" gridSize="10" guides="1" tooltips="1" connect="1" arrows="1" fold="1" page="1" pageScale="1" pageWidth="850" pageHeight="1100" math="0" shadow="0">
      <root>
        <mxCell id="0" />
        <mxCell id="1" parent="0" />
        <mxCell id="SxG5DDa3AlYOwk6Pmrtd-10" value="" style="edgeStyle=orthogonalEdgeStyle;rounded=0;orthogonalLoop=1;jettySize=auto;html=1;" parent="1" source="SxG5DDa3AlYOwk6Pmrtd-1" target="SxG5DDa3AlYOwk6Pmrtd-9" edge="1">
          <mxGeometry relative="1" as="geometry" />
        </mxCell>
        <mxCell id="SxG5DDa3AlYOwk6Pmrtd-1" value="Cassandra" style="shape=cylinder3;whiteSpace=wrap;html=1;boundedLbl=1;backgroundOutline=1;size=15;" parent="1" vertex="1">
          <mxGeometry x="210" y="200" width="80" height="110" as="geometry" />
        </mxCell>
        <mxCell id="SxG5DDa3AlYOwk6Pmrtd-12" value="" style="edgeStyle=orthogonalEdgeStyle;rounded=0;orthogonalLoop=1;jettySize=auto;html=1;" parent="1" source="SxG5DDa3AlYOwk6Pmrtd-2" target="SxG5DDa3AlYOwk6Pmrtd-11" edge="1">
          <mxGeometry relative="1" as="geometry" />
        </mxCell>
        <mxCell id="SxG5DDa3AlYOwk6Pmrtd-2" value="MySQL" style="shape=cylinder3;whiteSpace=wrap;html=1;boundedLbl=1;backgroundOutline=1;size=15;" parent="1" vertex="1">
          <mxGeometry x="510" y="200" width="80" height="110" as="geometry" />
        </mxCell>
        <mxCell id="SxG5DDa3AlYOwk6Pmrtd-3" value="" style="shape=flexArrow;endArrow=classic;html=1;rounded=0;" parent="1" edge="1">
          <mxGeometry width="50" height="50" relative="1" as="geometry">
            <mxPoint x="330" y="260" as="sourcePoint" />
            <mxPoint x="480" y="260" as="targetPoint" />
          </mxGeometry>
        </mxCell>
        <mxCell id="SxG5DDa3AlYOwk6Pmrtd-4" value="Main Task" style="text;strokeColor=none;align=center;fillColor=none;html=1;verticalAlign=middle;whiteSpace=wrap;rounded=0;" parent="1" vertex="1">
          <mxGeometry x="365" y="180" width="60" height="30" as="geometry" />
        </mxCell>
        <mxCell id="SxG5DDa3AlYOwk6Pmrtd-5" value="A" style="whiteSpace=wrap;html=1;aspect=fixed;" parent="1" vertex="1">
          <mxGeometry x="110" y="70" width="80" height="80" as="geometry" />
        </mxCell>
        <mxCell id="SxG5DDa3AlYOwk6Pmrtd-6" value="A" style="whiteSpace=wrap;html=1;aspect=fixed;" parent="1" vertex="1">
          <mxGeometry y="70" width="80" height="80" as="geometry" />
        </mxCell>
        <mxCell id="SxG5DDa3AlYOwk6Pmrtd-7" value="A" style="whiteSpace=wrap;html=1;aspect=fixed;" parent="1" vertex="1">
          <mxGeometry x="760" y="70" width="80" height="80" as="geometry" />
        </mxCell>
        <mxCell id="SxG5DDa3AlYOwk6Pmrtd-8" value="A" style="whiteSpace=wrap;html=1;aspect=fixed;" parent="1" vertex="1">
          <mxGeometry x="650" y="70" width="80" height="80" as="geometry" />
        </mxCell>
        <mxCell id="SxG5DDa3AlYOwk6Pmrtd-9" value="Latest Updated" style="rounded=0;whiteSpace=wrap;html=1;" parent="1" vertex="1">
          <mxGeometry x="190" y="350" width="120" height="60" as="geometry" />
        </mxCell>
        <mxCell id="SxG5DDa3AlYOwk6Pmrtd-11" value="Latest Updated" style="rounded=0;whiteSpace=wrap;html=1;" parent="1" vertex="1">
          <mxGeometry x="490" y="350" width="120" height="60" as="geometry" />
        </mxCell>
        <mxCell id="SxG5DDa3AlYOwk6Pmrtd-13" value="" style="endArrow=classic;html=1;rounded=0;exitX=0.5;exitY=1;exitDx=0;exitDy=0;" parent="1" source="SxG5DDa3AlYOwk6Pmrtd-9" edge="1">
          <mxGeometry width="50" height="50" relative="1" as="geometry">
            <mxPoint x="400" y="410" as="sourcePoint" />
            <mxPoint x="330" y="510" as="targetPoint" />
            <Array as="points">
              <mxPoint x="250" y="510" />
            </Array>
          </mxGeometry>
        </mxCell>
        <mxCell id="SxG5DDa3AlYOwk6Pmrtd-14" value="" style="endArrow=classic;html=1;rounded=0;exitX=0.5;exitY=1;exitDx=0;exitDy=0;entryX=1;entryY=0.5;entryDx=0;entryDy=0;" parent="1" target="SxG5DDa3AlYOwk6Pmrtd-15" edge="1">
          <mxGeometry width="50" height="50" relative="1" as="geometry">
            <mxPoint x="550" y="410" as="sourcePoint" />
            <mxPoint x="440" y="510" as="targetPoint" />
            <Array as="points">
              <mxPoint x="550" y="510" />
            </Array>
          </mxGeometry>
        </mxCell>
        <mxCell id="SxG5DDa3AlYOwk6Pmrtd-17" value="" style="edgeStyle=orthogonalEdgeStyle;rounded=0;orthogonalLoop=1;jettySize=auto;html=1;" parent="1" source="SxG5DDa3AlYOwk6Pmrtd-15" target="SxG5DDa3AlYOwk6Pmrtd-16" edge="1">
          <mxGeometry relative="1" as="geometry" />
        </mxCell>
        <mxCell id="SxG5DDa3AlYOwk6Pmrtd-15" value="C &amp;gt; MySQL" style="rhombus;whiteSpace=wrap;html=1;" parent="1" vertex="1">
          <mxGeometry x="330" y="450" width="120" height="120" as="geometry" />
        </mxCell>
        <mxCell id="SxG5DDa3AlYOwk6Pmrtd-16" value="Trigger Maintask" style="whiteSpace=wrap;html=1;aspect=fixed;" parent="1" vertex="1">
          <mxGeometry x="350" y="630" width="80" height="80" as="geometry" />
        </mxCell>
        <mxCell id="SxG5DDa3AlYOwk6Pmrtd-18" value="yes" style="text;strokeColor=none;align=center;fillColor=none;html=1;verticalAlign=middle;whiteSpace=wrap;rounded=0;" parent="1" vertex="1">
          <mxGeometry x="410" y="580" width="60" height="30" as="geometry" />
        </mxCell>
        <mxCell id="qZsHkgnYjAkNziL6kZ-8-1" value="Lake Store" style="shape=cylinder3;whiteSpace=wrap;html=1;boundedLbl=1;backgroundOutline=1;size=15;" parent="1" vertex="1">
          <mxGeometry x="260" y="950" width="60" height="80" as="geometry" />
        </mxCell>
        <mxCell id="qZsHkgnYjAkNziL6kZ-8-2" value="Data Store" style="shape=cylinder3;whiteSpace=wrap;html=1;boundedLbl=1;backgroundOutline=1;size=15;" parent="1" vertex="1">
          <mxGeometry x="480" y="950" width="60" height="80" as="geometry" />
        </mxCell>
        <mxCell id="qZsHkgnYjAkNziL6kZ-8-4" value="" style="endArrow=classic;html=1;rounded=0;exitX=1;exitY=0.5;exitDx=0;exitDy=0;exitPerimeter=0;entryX=0;entryY=0.5;entryDx=0;entryDy=0;entryPerimeter=0;" parent="1" source="qZsHkgnYjAkNziL6kZ-8-1" target="qZsHkgnYjAkNziL6kZ-8-2" edge="1">
          <mxGeometry width="50" height="50" relative="1" as="geometry">
            <mxPoint x="350" y="840" as="sourcePoint" />
            <mxPoint x="400" y="790" as="targetPoint" />
          </mxGeometry>
        </mxCell>
        <mxCell id="qZsHkgnYjAkNziL6kZ-8-5" value="CDC" style="text;strokeColor=none;align=center;fillColor=none;html=1;verticalAlign=middle;whiteSpace=wrap;rounded=0;" parent="1" vertex="1">
          <mxGeometry x="260" y="890" width="60" height="30" as="geometry" />
        </mxCell>
        <mxCell id="qZsHkgnYjAkNziL6kZ-8-7" value="" style="edgeStyle=orthogonalEdgeStyle;rounded=0;orthogonalLoop=1;jettySize=auto;html=1;" parent="1" source="qZsHkgnYjAkNziL6kZ-8-6" target="qZsHkgnYjAkNziL6kZ-8-2" edge="1">
          <mxGeometry relative="1" as="geometry" />
        </mxCell>
        <mxCell id="qZsHkgnYjAkNziL6kZ-8-6" value="CDC" style="text;strokeColor=none;align=center;fillColor=none;html=1;verticalAlign=middle;whiteSpace=wrap;rounded=0;" parent="1" vertex="1">
          <mxGeometry x="480" y="850" width="60" height="30" as="geometry" />
        </mxCell>
        <mxCell id="DBdaSYaG8T7A7CBLivUB-1" value="A" style="whiteSpace=wrap;html=1;aspect=fixed;" vertex="1" parent="1">
          <mxGeometry x="-110" y="70" width="80" height="80" as="geometry" />
        </mxCell>
        <mxCell id="DBdaSYaG8T7A7CBLivUB-2" value="A" style="whiteSpace=wrap;html=1;aspect=fixed;" vertex="1" parent="1">
          <mxGeometry x="870" y="70" width="80" height="80" as="geometry" />
        </mxCell>
      </root>
    </mxGraphModel>
  </diagram>
</mxfile>
